<svg xmlns="http://www.w3.org/2000/svg" viewBox="0 0 470.03 76.87"><defs><style>.cls-1{fill:#0f2549;}.cls-2{fill:#037493;}</style></defs><g id="Layer_2" data-name="Layer 2"><g id="Layer_1-2" data-name="Layer 1"><path class="cls-1" d="M111.33,29.24c0-3.41-2.92-4.88-6.18-6.19l-.54-.21c-2.41-.93-4.3-1.67-4.3-3.43s1.78-3.16,4-3.16a4.38,4.38,0,0,1,4,2.53l.08.19,2-1.39,0-.12a6.19,6.19,0,0,0-6.1-3.85c-3.82,0-6.69,2.48-6.69,5.75,0,3.45,3.17,4.71,5.49,5.62,2.6,1,5.54,2.09,5.54,4.3,0,1.91-2.05,3.35-4.77,3.35a5.85,5.85,0,0,1-5.13-2.87l-.09-.17L96.6,31.11l.05.12c1.08,2.45,4,4.09,7.22,4.09C108.19,35.32,111.33,32.76,111.33,29.24Z"/><path class="cls-1" d="M129.08,35H132L122.27,13.7l0-.1h-.47l-9.66,21.21L112,35h2.91l1.52-3.42h11.14Zm-2.59-5.79h-9L122,19.14Z"/><polygon class="cls-1" points="137.16 19.82 151.16 35.36 151.52 35.36 151.52 13.87 148.83 13.87 148.83 29.13 134.84 13.6 134.48 13.6 134.48 35.06 137.16 35.06 137.16 19.82"/><polygon class="cls-1" points="167.83 25.81 176.37 25.81 176.37 23.13 167.83 23.13 167.83 16.54 177.69 16.54 177.69 13.87 165.15 13.87 165.15 35.06 167.83 35.06 167.83 25.81"/><path class="cls-1" d="M183.82,26.93h3.6L193.25,35h3.31l-6.23-8.45a6.29,6.29,0,0,0,4.27-5.87,7,7,0,0,0-7.17-6.8h-6.3V35h2.68Zm8-6.27a4.23,4.23,0,0,1-4.35,4h-3.7v-8h3.7A4.22,4.22,0,0,1,191.86,20.66Z"/><path class="cls-1" d="M215.06,35H218L208.25,13.7l0-.1h-.47l-9.66,21.21L198,35h2.92l1.52-3.42h11.13Zm-2.58-5.79h-9L208,19.14Z"/><polygon class="cls-1" points="222.61 19.82 236.62 35.36 236.98 35.36 236.98 13.87 234.29 13.87 234.29 29.13 220.3 13.6 219.94 13.6 219.94 35.06 222.61 35.06 222.61 19.82"/><path class="cls-1" d="M257.9,32.21l.1-.1L256.45,30l-.14.14a8,8,0,0,1-13.81-5.6,8.31,8.31,0,0,1,8.05-8.15,8.15,8.15,0,0,1,5.75,2.56l.13.14L258,16.92l-.1-.1a10.66,10.66,0,0,0-7.26-3.19A11,11,0,0,0,239.8,24.49a10.85,10.85,0,0,0,10.85,10.82A10.07,10.07,0,0,0,257.9,32.21Z"/><rect class="cls-1" x="261.38" y="13.92" width="2.68" height="21.11"/><path class="cls-1" d="M276.24,23.05l-.55-.21c-2.4-.93-4.3-1.67-4.3-3.43s1.78-3.16,4-3.16a4.41,4.41,0,0,1,4.05,2.53l.08.19,2-1.39-.05-.12a6.17,6.17,0,0,0-6.1-3.85c-3.81,0-6.69,2.48-6.69,5.75,0,3.45,3.18,4.71,5.5,5.62,2.6,1,5.54,2.09,5.54,4.3,0,1.91-2.05,3.35-4.77,3.35a5.85,5.85,0,0,1-5.13-2.87l-.09-.17-2.07,1.52.06.12c1.08,2.45,4,4.09,7.21,4.09,4.33,0,7.47-2.56,7.47-6.08S279.49,24.36,276.24,23.05Z"/><path class="cls-1" d="M302.56,32.21l.1-.1L301.11,30l-.13.14a8,8,0,0,1-13.81-5.6,8.31,8.31,0,0,1,8-8.15A8.12,8.12,0,0,1,301,18.9l.14.14,1.56-2.12-.1-.1a10.64,10.64,0,0,0-7.26-3.19,11,11,0,0,0-10.84,10.86,10.85,10.85,0,0,0,10.86,10.82A10.05,10.05,0,0,0,302.56,32.21Z"/><path class="cls-1" d="M315.8,13.63a10.84,10.84,0,1,0,10.85,10.88A10.87,10.87,0,0,0,315.8,13.63ZM324,24.48a8.15,8.15,0,1,1-8.17-8.16A8.16,8.16,0,0,1,324,24.48Z"/><polygon class="cls-1" points="110.82 53.94 100.62 53.94 100.62 44.72 97.95 44.72 97.95 65.84 100.62 65.84 100.62 56.61 110.82 56.61 110.82 65.84 113.5 65.84 113.5 44.72 110.82 44.72 110.82 53.94"/><path class="cls-1" d="M130.23,57.59c0,3.4-2.18,5.87-5.19,5.87s-5.16-2.47-5.16-5.87V44.72H117.2V57.6c0,5,3.3,8.56,7.86,8.56s7.86-3.6,7.86-8.56V44.72h-2.69Z"/><polygon class="cls-1" points="146.97 60.72 137.18 44.42 137.13 44.34 136.62 44.34 136.62 65.84 139.29 65.84 139.29 52.18 146.81 65.41 146.89 65.49 147.08 65.49 154.63 52.19 154.63 65.84 157.31 65.84 157.31 44.34 156.79 44.34 146.97 60.72"/><path class="cls-1" d="M170,44.4h-.47L159.9,65.61l-.11.23h2.92l1.52-3.42h11.13l1.52,3.42h2.91L170.07,44.5Zm4.27,15.65h-9l4.5-10.11Z"/><polygon class="cls-1" points="196.63 59.93 182.65 44.4 182.28 44.4 182.28 65.86 184.96 65.86 184.96 50.62 198.97 66.16 199.32 66.16 199.32 44.67 196.63 44.67 196.63 59.93"/><path class="cls-1" d="M220.15,53.85l-.54-.21c-2.4-.93-4.3-1.67-4.3-3.43s1.78-3.16,4-3.16a4.38,4.38,0,0,1,4.05,2.53l.08.19,2-1.39,0-.12a6.18,6.18,0,0,0-6.1-3.85c-3.82,0-6.69,2.48-6.69,5.75,0,3.45,3.17,4.71,5.5,5.62,2.59,1,5.54,2.09,5.54,4.3,0,1.91-2.06,3.35-4.78,3.35a5.84,5.84,0,0,1-5.12-2.87l-.09-.17-2.07,1.52.05.12c1.09,2.45,4,4.09,7.22,4.09,4.32,0,7.46-2.56,7.46-6.08S223.41,55.16,220.15,53.85Z"/><polygon class="cls-1" points="230 65.84 242.54 65.84 242.54 63.17 232.68 63.17 232.68 56.28 241.23 56.28 241.23 53.62 232.68 53.62 232.68 47.36 242.54 47.36 242.54 44.72 230 44.72 230 65.84"/><path class="cls-1" d="M260.33,51.52a7,7,0,0,0-7.17-6.8h-6.3V65.84h2.68V57.73h3.61L259,65.84h3.32l-6.24-8.45A6.28,6.28,0,0,0,260.33,51.52Zm-2.74-.06a4.23,4.23,0,0,1-4.35,4h-3.7v-8h3.7A4.22,4.22,0,0,1,257.59,51.46Z"/><polygon class="cls-1" points="270.87 60.57 263.97 44.82 263.93 44.72 261.06 44.72 270.59 66.06 270.64 66.16 271.13 66.16 280.64 44.96 280.75 44.72 277.87 44.72 270.87 60.57"/><rect class="cls-1" x="283.77" y="44.72" width="2.68" height="21.11"/><path class="cls-1" d="M301.08,47.14a8.13,8.13,0,0,1,5.75,2.56l.13.14,1.57-2.12-.1-.1a10.66,10.66,0,0,0-7.26-3.19,11,11,0,0,0-10.84,10.86,10.85,10.85,0,0,0,10.85,10.82,10.07,10.07,0,0,0,7.25-3.1l.1-.1L307,60.75l-.14.14A8,8,0,0,1,293,55.29,8.31,8.31,0,0,1,301.08,47.14Z"/><polygon class="cls-1" points="311.92 65.84 324.46 65.84 324.46 63.17 314.6 63.17 314.6 56.28 323.14 56.28 323.14 53.62 314.6 53.62 314.6 47.36 324.46 47.36 324.46 44.72 311.92 44.72 311.92 65.84"/><path class="cls-1" d="M335.45,53.85l-.55-.21c-2.4-.93-4.3-1.67-4.3-3.43s1.78-3.16,4-3.16a4.41,4.41,0,0,1,4.05,2.53l.08.19,2-1.39,0-.12a6.18,6.18,0,0,0-6.1-3.85c-3.81,0-6.69,2.48-6.69,5.75,0,3.45,3.18,4.71,5.5,5.62,2.6,1,5.54,2.09,5.54,4.3,0,1.91-2.05,3.35-4.77,3.35a5.85,5.85,0,0,1-5.13-2.87l-.09-.17-2.07,1.52L327,62c1.08,2.45,4,4.09,7.21,4.09,4.33,0,7.47-2.56,7.47-6.08S338.7,55.16,335.45,53.85Z"/><path class="cls-1" d="M362.23,44.4h-.47L352.1,65.61l-.11.23h2.92l1.52-3.42h11.13l1.53,3.42H372L362.28,44.5Zm4.27,15.65h-9L362,49.94Z"/><path class="cls-1" d="M392.65,54.5H382.44v2.44h7.48v.25c0,3.55-3.05,6.23-7.09,6.23a8.15,8.15,0,1,1-.21-16.29,9.37,9.37,0,0,1,6.13,2.67l.14.14,1.5-2.22-.1-.1a11.92,11.92,0,0,0-7.64-3.17,10.84,10.84,0,1,0,.07,21.67,9.78,9.78,0,0,0,10-10,14.23,14.23,0,0,0-.09-1.51Z"/><polygon class="cls-1" points="396.1 65.84 408.64 65.84 408.64 63.17 398.78 63.17 398.78 56.28 407.33 56.28 407.33 53.62 398.78 53.62 398.78 47.36 408.64 47.36 408.64 44.72 396.1 44.72 396.1 65.84"/><polygon class="cls-1" points="426.78 59.93 412.8 44.4 412.43 44.4 412.43 65.86 415.11 65.86 415.11 50.62 429.12 66.16 429.47 66.16 429.47 44.67 426.78 44.67 426.78 59.93"/><path class="cls-1" d="M443.57,47.14a8.13,8.13,0,0,1,5.75,2.56l.13.14L451,47.72l-.1-.1a10.66,10.66,0,0,0-7.26-3.19,11,11,0,0,0-10.84,10.86,10.85,10.85,0,0,0,10.85,10.82,10.07,10.07,0,0,0,7.25-3.1l.1-.1-1.55-2.16-.14.14a8,8,0,0,1-13.81-5.6A8.31,8.31,0,0,1,443.57,47.14Z"/><polygon class="cls-1" points="467.01 44.72 461.21 53.91 455.47 44.8 455.43 44.72 452.41 44.72 459.89 56.89 459.89 65.84 462.55 65.84 462.55 56.89 470.03 44.72 467.01 44.72"/><path class="cls-2" d="M57.92,0H19A18.94,18.94,0,0,0,0,19v39a18.94,18.94,0,0,0,19,19h39a18.94,18.94,0,0,0,19-19V19A18.94,18.94,0,0,0,57.92,0ZM68.6,18.61a36,36,0,0,1,5.91,18.26,35.54,35.54,0,0,0-12.62-5.43A12.13,12.13,0,0,0,68.6,18.61ZM61.9,45.43A35.37,35.37,0,0,0,74.51,40,36,36,0,0,1,68.6,58.26a12.19,12.19,0,0,0,.15-1.82A12.32,12.32,0,0,0,61.9,45.43ZM56.62,33.1c7.32,0,13.68,3.63,16.26,5.34-2.58,1.7-8.94,5.34-16.26,5.34s-13.68-3.64-16.26-5.34C42.94,36.73,49.3,33.1,56.62,33.1ZM42,34.89a34,34,0,0,0,3.4-9.1,12.37,12.37,0,0,0,5.71,5.7A34,34,0,0,0,42,34.89Zm9.1,10.49a12.37,12.37,0,0,0-5.71,5.72A34.18,34.18,0,0,0,42,42,34,34,0,0,0,51.09,45.38Zm5.35.74A10.32,10.32,0,1,1,46.12,56.44,10.33,10.33,0,0,1,56.44,46.12Zm0-15.37A10.32,10.32,0,1,1,66.76,20.43,10.33,10.33,0,0,1,56.44,30.75Zm0-22.63a12.3,12.3,0,0,0-11,6.86A35.41,35.41,0,0,0,40,2.36,36,36,0,0,1,58.26,8.27,12.19,12.19,0,0,0,56.44,8.12ZM43.78,20.28c0,7.32-3.64,13.68-5.34,16.26C36.73,34,33.09,27.6,33.09,20.28S36.73,6.6,38.44,4C40.14,6.6,43.78,13,43.78,20.28Zm-35.51,38A36,36,0,0,1,2.36,40,35.56,35.56,0,0,0,15,45.43a12.32,12.32,0,0,0-6.85,11A12.19,12.19,0,0,0,8.27,58.26ZM15,31.44A35.54,35.54,0,0,0,2.36,36.87,36,36,0,0,1,8.27,18.61,12.13,12.13,0,0,0,15,31.44Zm5.45-.69A10.32,10.32,0,1,1,30.75,20.43,10.33,10.33,0,0,1,20.43,30.75Zm11.05-5a34.22,34.22,0,0,0,3.39,9.08,34.44,34.44,0,0,0-9.09-3.38A12.35,12.35,0,0,0,31.48,25.79Zm-11,20.33A10.33,10.33,0,1,1,10.11,56.44,10.33,10.33,0,0,1,20.43,46.12Zm5.35-.73A34.38,34.38,0,0,0,34.9,42a34.38,34.38,0,0,0-3.41,9.12A12.35,12.35,0,0,0,25.78,45.39Zm-5.52-1.61c-7.33,0-13.69-3.64-16.27-5.34,2.57-1.71,8.92-5.34,16.27-5.34S34,36.73,36.53,38.44C34,40.14,27.59,43.78,20.26,43.78ZM31.44,15a12.31,12.31,0,0,0-11-6.86,12.19,12.19,0,0,0-1.82.15A36,36,0,0,1,36.9,2.36,35.2,35.2,0,0,0,31.44,15ZM2.32,19A16.65,16.65,0,0,1,19,2.32h6.3A38.56,38.56,0,0,0,2.32,25.25ZM19,74.55A16.65,16.65,0,0,1,2.32,57.92V51.63A38.57,38.57,0,0,0,25.25,74.55Zm-.34-6a12.19,12.19,0,0,0,1.82.15,12.32,12.32,0,0,0,11-6.85,35.32,35.32,0,0,0,5.41,12.61A36,36,0,0,1,18.61,68.6Zm14.48-12c0-7.32,3.64-13.69,5.35-16.27,1.7,2.58,5.34,9,5.34,16.27s-3.64,13.7-5.34,16.28C36.73,70.34,33.09,64,33.09,56.64Zm12.35,5.27A12.13,12.13,0,0,0,58.26,68.6,36,36,0,0,1,40,74.51,35.49,35.49,0,0,0,45.44,61.91Zm29.11-4A16.65,16.65,0,0,1,57.92,74.55h-6.3A38.57,38.57,0,0,0,74.55,51.63Zm0-32.67A38.56,38.56,0,0,0,51.62,2.32h6.3A16.65,16.65,0,0,1,74.55,19Z"/></g></g></svg>